<?xml version="1.0" encoding="UTF-8"?>
<svg width="218px" height="218px" viewBox="0 0 218 218" version="1.1" xmlns="http://www.w3.org/2000/svg" xmlns:xlink="http://www.w3.org/1999/xlink">
    <title>Graphic</title>
    <g id="Graphic" stroke="none" fill="none" transform="translate(1032, 712.8852) rotate(-45) translate(-1032, -712.8852)translate(32, 31.8852)" fill-rule="evenodd" stroke-width="1">
        <g id="Group" transform="translate(9.6235, 6.4151)" fill="#000000">
            <path d="M42.432264,95.471354 C49.8616131,102.806661 50.1488366,114.870048 43.4147596,122.837079 C39.6024332,127.375563 33.5826099,130.747438 25.8787912,133.426561 C21.78691,134.849576 17.4548243,135.985168 13.1298629,136.871995 C10.5331217,137.404452 8.49153072,137.739829 7.26843165,137.903345 C3.07594608,138.463837 -0.502420962,134.88547 0.0580717609,130.692985 C0.22158768,129.469886 0.556964084,127.428295 1.08942172,124.831553 C1.97624815,120.506592 3.11184052,116.174506 4.53485576,112.082625 C7.21323828,104.380935 10.5839908,98.3623092 15.1206952,94.5500426 C23.0843432,87.8419668 34.8217727,88.2061936 42.432264,95.471354 Z M131.582952,0.00171978361 C135.111179,0.0236035002 137.95982,2.88996826 137.95982,6.41826303 C137.95982,34.050617 127.366356,59.9543889 100.408969,79.6689861 C100.556205,80.2953226 100.70716,80.963038 100.857749,81.6667175 C101.872471,86.4083484 102.498364,91.1623718 102.537879,95.7027521 C102.596085,102.390765 101.389499,108.133222 98.3764773,112.65274 C95.2862905,117.272091 90.2107034,120.772152 83.6996344,123.583622 C80.3639093,125.023984 76.8416151,126.192281 73.325927,127.123745 C71.2116055,127.683924 69.5414128,128.04681 68.5225012,128.231761 C64.5842291,128.946629 60.95982,125.92089 60.95982,121.918263 L60.959,92.492 L45.468,77.001 L16.0431534,77.0015964 C12.0405263,77.0015964 9.0147871,73.3771873 9.72965498,69.4389151 C9.91460592,68.4200036 10.2774929,66.7498109 10.8376717,64.6354894 C11.7691356,61.1198013 12.9374327,57.5975071 14.377794,54.261782 C17.1892644,47.750713 20.6893254,42.6751259 25.3171604,39.5792736 C29.8281944,36.5719177 35.5706516,35.3653313 42.2586643,35.4235375 C46.7990446,35.4630527 51.553068,36.0889457 56.2946989,37.1036672 C57.0243472,37.2598139 57.715328,37.4163537 58.3631421,37.5702821 C75.1059798,13.9335654 102.404486,-0.179258732 131.582952,0.00171978361 Z M23.3865148,104.366573 C21.0069347,106.365432 18.6420393,110.58749 16.6561257,116.297985 C15.8706036,118.556755 15.1769264,120.941334 14.5836879,123.377728 C17.0200811,122.784491 19.404661,122.090813 21.6634313,121.305291 C27.3739269,119.319377 31.5959848,116.954482 33.6008791,114.56775 C36.0950786,111.616866 35.9885771,107.143805 33.4936479,104.679165 C30.6980621,102.010898 26.3416473,101.876163 23.3865148,104.366573 Z M88.8174102,86.953012 L88.6017697,87.0721309 C83.800903,89.7126403 78.8577688,92.0883894 73.7945006,94.1883112 L73.7931534,113.603193 C75.4522842,113.07003 77.0721707,112.466735 78.6122335,111.801738 C83.0616551,109.880484 86.2717291,107.666858 87.704164,105.525603 C89.0363862,103.52727 89.7428932,100.16482 89.7050315,95.8144371 C89.6807921,93.0292764 89.3600616,90.0221897 88.8174102,86.953012 Z M124.851121,13.1196241 C100.972327,15.0246648 79.2339781,28.1214024 66.3637728,48.698996 C62.2197796,55.1714218 58.6384722,61.9843697 55.6952494,69.0791553 L68.8976057,82.2815116 C76.089424,79.3414529 82.9842775,75.7680038 89.4358283,71.6934512 C89.4674242,71.6714344 89.4998599,71.6498401 89.5325289,71.6285217 L89.4697029,71.6720502 C112.930147,55.9418671 123.216913,35.5052283 124.851121,13.1196241 Z M42.1469793,48.2563849 C37.7965961,48.2185232 34.4341463,48.9250302 32.4442965,50.251587 C30.2945589,51.6896873 28.0809322,54.8997612 26.1596783,59.3491829 C25.4946811,60.8892463 24.8913859,62.5091335 24.3582238,64.168263 L43.7943231,64.1679042 C45.9559227,59.0251234 48.4053206,54.0128107 51.1239026,49.1651776 C48.0150763,48.6094881 44.9672496,48.2809298 42.1469793,48.2563849 Z" id="Combined-Shape" fill-rule="nonzero"></path>
        </g>
    </g>
</svg>