<?xml version="1.0" encoding="UTF-8"?>
<svg width="220px" height="221px" viewBox="0 0 220 221" version="1.1" xmlns="http://www.w3.org/2000/svg" xmlns:xlink="http://www.w3.org/1999/xlink">
    <title>Combined Shape</title>
    <style>
      @media (prefers-color-scheme: dark) {
        .icon { fill: white; }
      }
    </style>
    <g id="Logo" stroke="none" stroke-width="1" fill="none" fill-rule="evenodd">
        <g id="Frame-Copy" class="icon" transform="translate(-190, -135)" fill="#000000">
            <path d="M331.304952,154.355191 L406.304952,304.355191 C414.949575,321.644439 407.941723,342.667995 390.652476,351.312619 C379.146748,357.065482 365.987208,355.886339 355.922798,349.358168 C355.639334,349.195077 355.343772,349.005856 355.036865,348.790382 C338.96167,337.504249 319.189453,329.942237 297.108398,329.942237 C282.387695,329.942237 264.687866,336.420183 244.008911,349.376075 L244.607305,349.004189 C239.013727,352.793934 232.265386,355.007667 225,355.007667 C205.670034,355.007667 190,339.337633 190,320.007667 C190,300.677701 205.670034,285.007667 225,285.007667 C231.10026,284.841 236.981283,286.239763 242.643066,289.203956 C251.135742,293.650245 277.915039,310.088722 300,310.088722 C322.084961,310.088722 322.846069,293.923805 319.34021,286.960914 C319.310402,286.901713 319.282402,286.842636 319.256212,286.783683 L268.695048,185.660143 C260.050425,168.370895 267.058277,147.347339 284.347524,138.702715 C301.636772,130.058092 322.660328,137.065944 331.304952,154.355191 Z" id="Combined-Shape" transform="translate(300.0038, 245.0077) scale(-1, 1) translate(-300.0038, -245.0077)"></path>
        </g>
    </g>
</svg>

